# xmcd
#
# Track frame offsets: 
#        150
#        24456
#        43413
#        61027
#        80661
#        98352
#        116221
#        133446
#        156150
#        173369
#        194163
#        216609
#        234966
#        252827
#        273233
#        293715
#
# Disc length: 4140 seconds
#
# Revision: 3
# Processed by: cddbd v1.5.2PL0 Copyright (c) Steve Scherf et al.
# Submitted via: ExactAudioCopyFreeDBPlugin 1.0
#
DISCID=e9102a10
DTITLE=µØ¬P¤H - 我係華星人
DYEAR=1997
DGENRE=
TTITLE0=梅艷芳 - 似水流年
TTITLE1=羅文 - 幾許風雨
TTITLE2=張國榮 - 有誰共鳴
TTITLE3=陳奕迅  - 天下無雙
TTITLE4=陳潔靈/葉德嫻 - 千個太陽
TTITLE5=楊千嬅 - 再見二丁目
TTITLE6=呂方 - 聽不到的說話
TTITLE7=何韻詩 - 光榮之家
TTITLE8=梁漢文  - 重新做人
TTITLE9=許志安 - 男人最痛
TTITLE10=陳奕迅  - 抱擁這分鐘
TTITLE11=梅艷芳/倫永亮 - 心仍是冷
TTITLE12=關菊英  -  新的一頁
TTITLE13=張國榮 - 不怕寂寞
TTITLE14=羅文/華星新秀 - 浪淘沙
TTITLE15=鄭少秋 - 誓不低頭
EXTD=
EXTT0=
EXTT1=
EXTT2=
EXTT3=
EXTT4=
EXTT5=
EXTT6=
EXTT7=
EXTT8=
EXTT9=
EXTT10=
EXTT11=
EXTT12=
EXTT13=
EXTT14=
EXTT15=
PLAYORDER=
